<mxfile host="app.diagrams.net" modified="2023-11-14T12:50:00.205Z" agent="Mozilla/5.0 (Windows NT 10.0; Win64; x64) AppleWebKit/537.36 (KHTML, like Gecko) Chrome/119.0.0.0 Safari/537.36 Edg/119.0.0.0" etag="QnH-xA973WdL9O5TXQrV" version="22.1.0" type="device">
  <diagram id="C5RBs43oDa-KdzZeNtuy" name="Page-1">
    <mxGraphModel dx="2137" dy="1934" grid="1" gridSize="10" guides="1" tooltips="1" connect="1" arrows="1" fold="1" page="1" pageScale="1" pageWidth="827" pageHeight="1169" math="0" shadow="0">
      <root>
        <mxCell id="WIyWlLk6GJQsqaUBKTNV-0" />
        <mxCell id="WIyWlLk6GJQsqaUBKTNV-1" parent="WIyWlLk6GJQsqaUBKTNV-0" />
        <mxCell id="cLSf2xtk1npk4WKIa0hI-4" style="edgeStyle=orthogonalEdgeStyle;rounded=0;orthogonalLoop=1;jettySize=auto;html=1;exitX=0.5;exitY=1;exitDx=0;exitDy=0;entryX=0.5;entryY=0;entryDx=0;entryDy=0;" parent="WIyWlLk6GJQsqaUBKTNV-1" source="sKV7Br36NTfYx774qnBV-52" target="cLSf2xtk1npk4WKIa0hI-3" edge="1">
          <mxGeometry relative="1" as="geometry" />
        </mxCell>
        <mxCell id="cLSf2xtk1npk4WKIa0hI-23" style="edgeStyle=orthogonalEdgeStyle;rounded=0;orthogonalLoop=1;jettySize=auto;html=1;exitX=0.5;exitY=1;exitDx=0;exitDy=0;entryX=0.5;entryY=0;entryDx=0;entryDy=0;" parent="WIyWlLk6GJQsqaUBKTNV-1" source="cLSf2xtk1npk4WKIa0hI-3" target="cLSf2xtk1npk4WKIa0hI-21" edge="1">
          <mxGeometry relative="1" as="geometry" />
        </mxCell>
        <mxCell id="I_6RSkmziG8DNa_WAbXl-4" style="edgeStyle=orthogonalEdgeStyle;rounded=0;orthogonalLoop=1;jettySize=auto;html=1;exitX=0.5;exitY=1;exitDx=0;exitDy=0;entryX=0.5;entryY=0;entryDx=0;entryDy=0;" parent="WIyWlLk6GJQsqaUBKTNV-1" source="I_6RSkmziG8DNa_WAbXl-0" target="cLSf2xtk1npk4WKIa0hI-3" edge="1">
          <mxGeometry relative="1" as="geometry">
            <mxPoint x="795" y="540" as="sourcePoint" />
            <mxPoint x="475" y="821" as="targetPoint" />
          </mxGeometry>
        </mxCell>
        <mxCell id="1aZ0do-ARE3-RxrEN_Oa-0" value="" style="group" parent="WIyWlLk6GJQsqaUBKTNV-1" vertex="1" connectable="0">
          <mxGeometry x="383.75" y="-460" width="987.5" height="210" as="geometry" />
        </mxCell>
        <mxCell id="WIyWlLk6GJQsqaUBKTNV-3" value="MetaDataLookup" style="rounded=1;whiteSpace=wrap;html=1;fontSize=12;glass=0;strokeWidth=1;shadow=0;fillColor=#FFD966;" parent="1aZ0do-ARE3-RxrEN_Oa-0" vertex="1">
          <mxGeometry y="65" width="165" height="80" as="geometry" />
        </mxCell>
        <mxCell id="sKV7Br36NTfYx774qnBV-22" value="&lt;div style=&quot;border-color: var(--border-color); text-align: left;&quot;&gt;1)This calls a notebook &quot;get_metadata_dim_fact&quot;&lt;/div&gt;&lt;div style=&quot;border-color: var(--border-color); text-align: left;&quot;&gt;&lt;span style=&quot;border-color: var(--border-color); background-color: initial;&quot;&gt;&lt;br style=&quot;border-color: var(--border-color);&quot;&gt;&lt;/span&gt;&lt;/div&gt;&lt;div style=&quot;border-color: var(--border-color); text-align: left;&quot;&gt;&lt;span style=&quot;border-color: var(--border-color); background-color: initial;&quot;&gt;2)All the tables which needs to be processed will be kept in Control table and this drives the entire pipeline execution process.&lt;/span&gt;&lt;/div&gt;&lt;div style=&quot;border-color: var(--border-color); text-align: left;&quot;&gt;&lt;br style=&quot;border-color: var(--border-color);&quot;&gt;&lt;/div&gt;&lt;div style=&quot;border-color: var(--border-color); text-align: left;&quot;&gt;3)This notebook reads the control table and return JSON to the ADF pipeline&lt;/div&gt;" style="shape=process;whiteSpace=wrap;html=1;backgroundOutline=1;strokeColor=default;align=center;verticalAlign=middle;fontFamily=Helvetica;fontSize=12;fontColor=default;fillColor=default;" parent="1aZ0do-ARE3-RxrEN_Oa-0" vertex="1">
          <mxGeometry x="580" y="35" width="407.5" height="140" as="geometry" />
        </mxCell>
        <mxCell id="cLSf2xtk1npk4WKIa0hI-8" style="edgeStyle=orthogonalEdgeStyle;rounded=0;orthogonalLoop=1;jettySize=auto;html=1;entryX=0;entryY=0.5;entryDx=0;entryDy=0;" parent="1aZ0do-ARE3-RxrEN_Oa-0" source="WIyWlLk6GJQsqaUBKTNV-3" target="sKV7Br36NTfYx774qnBV-22" edge="1">
          <mxGeometry relative="1" as="geometry" />
        </mxCell>
        <mxCell id="1aZ0do-ARE3-RxrEN_Oa-2" value="" style="group" parent="WIyWlLk6GJQsqaUBKTNV-1" vertex="1" connectable="0">
          <mxGeometry x="372.5" y="-780" width="998.75" height="180" as="geometry" />
        </mxCell>
        <mxCell id="sKV7Br36NTfYx774qnBV-8" value="Create Batch&lt;br&gt;" style="rounded=1;whiteSpace=wrap;html=1;strokeColor=default;align=center;verticalAlign=middle;fontFamily=Helvetica;fontSize=12;fontColor=default;fillColor=#FFD966;" parent="1aZ0do-ARE3-RxrEN_Oa-2" vertex="1">
          <mxGeometry y="60" width="190" height="60" as="geometry" />
        </mxCell>
        <mxCell id="sKV7Br36NTfYx774qnBV-33" value="&lt;div style=&quot;border-color: var(--border-color); text-align: left;&quot;&gt;&lt;div style=&quot;border-color: var(--border-color);&quot;&gt;&lt;div style=&quot;border-color: var(--border-color);&quot;&gt;1)etl_batch_history&amp;nbsp;is the table where all batch history is updated.&lt;br style=&quot;border-color: var(--border-color);&quot;&gt;&lt;/div&gt;&lt;div style=&quot;border-color: var(--border-color);&quot;&gt;&lt;br style=&quot;border-color: var(--border-color);&quot;&gt;&lt;/div&gt;&lt;div style=&quot;border-color: var(--border-color);&quot;&gt;2)As part of initial process it will insert a new New BatchID for the new batch.&lt;/div&gt;&lt;div style=&quot;border-color: var(--border-color);&quot;&gt;&lt;br style=&quot;border-color: var(--border-color);&quot;&gt;&lt;/div&gt;&lt;div style=&quot;border-color: var(--border-color);&quot;&gt;3)We are capturing success,running,cancel and failing statuses in batch history table.&lt;/div&gt;&lt;div style=&quot;border-color: var(--border-color);&quot;&gt;&lt;br&gt;&lt;/div&gt;&lt;div style=&quot;border-color: var(--border-color);&quot;&gt;4)With batch log ,when ever there is failure or cancelled will be processed in next iteration...i.e it will give a Retry attempt from where it is failed&lt;br&gt;&lt;/div&gt;&lt;/div&gt;&lt;/div&gt;" style="shape=process;whiteSpace=wrap;html=1;backgroundOutline=1;strokeColor=default;align=center;verticalAlign=middle;fontFamily=Helvetica;fontSize=12;fontColor=default;fillColor=default;" parent="1aZ0do-ARE3-RxrEN_Oa-2" vertex="1">
          <mxGeometry x="588.75" width="410" height="180" as="geometry" />
        </mxCell>
        <mxCell id="cLSf2xtk1npk4WKIa0hI-15" style="edgeStyle=orthogonalEdgeStyle;rounded=0;orthogonalLoop=1;jettySize=auto;html=1;exitX=1;exitY=0.5;exitDx=0;exitDy=0;entryX=0;entryY=0.5;entryDx=0;entryDy=0;" parent="1aZ0do-ARE3-RxrEN_Oa-2" source="sKV7Br36NTfYx774qnBV-8" target="sKV7Br36NTfYx774qnBV-33" edge="1">
          <mxGeometry relative="1" as="geometry" />
        </mxCell>
        <mxCell id="1aZ0do-ARE3-RxrEN_Oa-3" value="" style="group" parent="WIyWlLk6GJQsqaUBKTNV-1" vertex="1" connectable="0">
          <mxGeometry x="370" y="-80" width="1000" height="240" as="geometry" />
        </mxCell>
        <mxCell id="sKV7Br36NTfYx774qnBV-50" value="Create Process" style="rounded=1;whiteSpace=wrap;html=1;strokeColor=default;align=center;verticalAlign=middle;fontFamily=Helvetica;fontSize=12;fontColor=default;fillColor=#FFD966;" parent="1aZ0do-ARE3-RxrEN_Oa-3" vertex="1">
          <mxGeometry y="95" width="190" height="50" as="geometry" />
        </mxCell>
        <mxCell id="cLSf2xtk1npk4WKIa0hI-0" value="&lt;div align=&quot;left&quot;&gt;1)ETL_PROCESS_HISTORY is the table where all process history is maintained.&lt;br&gt;&lt;br&gt;2)As part of initial process it will insert a new New ExecutionID for the new process for each dataset and capturing row counts information before and after process completion including the duration. &lt;br&gt;&lt;br&gt;3)We will keep the both Batch and Process status as Running with ExecutionStartTime as ADF pipeline activity start time at this stage by keeping Target table row count 0 if it is in Full load mode otherwise record count from the Target table.&lt;br&gt;&lt;br&gt;4)Success, Running, Failed status are maintained.&lt;br&gt;&lt;/div&gt;" style="shape=process;whiteSpace=wrap;html=1;backgroundOutline=1;strokeColor=default;align=left;verticalAlign=middle;fontFamily=Helvetica;fontSize=12;fontColor=default;fillColor=default;" parent="1aZ0do-ARE3-RxrEN_Oa-3" vertex="1">
          <mxGeometry x="592.5" width="407.5" height="240" as="geometry" />
        </mxCell>
        <mxCell id="cLSf2xtk1npk4WKIa0hI-19" style="edgeStyle=orthogonalEdgeStyle;rounded=0;orthogonalLoop=1;jettySize=auto;html=1;exitX=1;exitY=0.5;exitDx=0;exitDy=0;" parent="1aZ0do-ARE3-RxrEN_Oa-3" source="sKV7Br36NTfYx774qnBV-50" target="cLSf2xtk1npk4WKIa0hI-0" edge="1">
          <mxGeometry relative="1" as="geometry" />
        </mxCell>
        <mxCell id="I_6RSkmziG8DNa_WAbXl-11" style="edgeStyle=orthogonalEdgeStyle;rounded=0;orthogonalLoop=1;jettySize=auto;html=1;entryX=0.5;entryY=0;entryDx=0;entryDy=0;" parent="WIyWlLk6GJQsqaUBKTNV-1" source="sKV7Br36NTfYx774qnBV-50" target="I_6RSkmziG8DNa_WAbXl-5" edge="1">
          <mxGeometry relative="1" as="geometry" />
        </mxCell>
        <mxCell id="1aZ0do-ARE3-RxrEN_Oa-4" value="" style="group" parent="WIyWlLk6GJQsqaUBKTNV-1" vertex="1" connectable="0">
          <mxGeometry x="690" y="360" width="987.5" height="280" as="geometry" />
        </mxCell>
        <mxCell id="sKV7Br36NTfYx774qnBV-52" value="upsert into Gold layer" style="rounded=1;whiteSpace=wrap;html=1;strokeColor=default;align=center;verticalAlign=middle;fontFamily=Helvetica;fontSize=12;fontColor=default;fillColor=#FFD966;" parent="1aZ0do-ARE3-RxrEN_Oa-4" vertex="1">
          <mxGeometry y="110.25" width="190" height="60" as="geometry" />
        </mxCell>
        <mxCell id="sKV7Br36NTfYx774qnBV-56" style="edgeStyle=orthogonalEdgeStyle;rounded=0;orthogonalLoop=1;jettySize=auto;html=1;fontFamily=Helvetica;fontSize=12;fontColor=default;" parent="1aZ0do-ARE3-RxrEN_Oa-4" source="sKV7Br36NTfYx774qnBV-52" edge="1">
          <mxGeometry relative="1" as="geometry">
            <mxPoint x="588.75" y="140.24000000000024" as="targetPoint" />
          </mxGeometry>
        </mxCell>
        <mxCell id="qOGddHEmML8nDjTaBClH-2" value="&lt;div style=&quot;border-color: var(--border-color); text-align: left;&quot;&gt;&lt;div style=&quot;border-color: var(--border-color);&quot;&gt;&lt;div style=&quot;border-color: var(--border-color);&quot;&gt;1)Upsert notebook will accept the below parameters&lt;/div&gt;&lt;div style=&quot;border-color: var(--border-color);&quot;&gt;&lt;div style=&quot;border-color: var(--border-color);&quot;&gt;ExtractWindowsStartDate&lt;/div&gt;&lt;div style=&quot;border-color: var(--border-color);&quot;&gt;TargetTableName&lt;/div&gt;&lt;div style=&quot;border-color: var(--border-color);&quot;&gt;SourceTableName&lt;/div&gt;&lt;div style=&quot;border-color: var(--border-color);&quot;&gt;SourceSchemaName&lt;/div&gt;&lt;div style=&quot;border-color: var(--border-color);&quot;&gt;TargetSchemaName&lt;/div&gt;&lt;div style=&quot;border-color: var(--border-color);&quot;&gt;ExtractWindowsStartDate&lt;/div&gt;&lt;div style=&quot;border-color: var(--border-color);&quot;&gt;BatchId&lt;/div&gt;&lt;/div&gt;&lt;div style=&quot;border-color: var(--border-color);&quot;&gt;&lt;br&gt;&lt;/div&gt;&lt;div style=&quot;border-color: var(--border-color);&quot;&gt;2)We will have a&amp;nbsp;CTL_TABLE_DIMS_FACTS&amp;nbsp;&lt;span style=&quot;background-color: initial;&quot;&gt;table where we get always the latest schema.&lt;/span&gt;&lt;br&gt;&lt;/div&gt;&lt;div style=&quot;border-color: var(--border-color);&quot;&gt;&lt;br&gt;&lt;/div&gt;&lt;div style=&quot;border-color: var(--border-color);&quot;&gt;3)There is no update in mapping table, Because how many columns are in bronze and silver that doesn&#39;t matter in Gold there will be constant number of columns in Gold layer used for higher purpose.&lt;/div&gt;&lt;div style=&quot;border-color: var(--border-color);&quot;&gt;&lt;br&gt;&lt;/div&gt;&lt;div style=&quot;border-color: var(--border-color);&quot;&gt;4)In this notebook we form an SQL merge statement to perform a merge from the silver layer to the Gold layer.&amp;nbsp;&lt;/div&gt;&lt;/div&gt;&lt;/div&gt;" style="shape=process;whiteSpace=wrap;html=1;backgroundOutline=1;strokeColor=default;align=center;verticalAlign=middle;fontFamily=Helvetica;fontSize=12;fontColor=default;fillColor=default;" parent="1aZ0do-ARE3-RxrEN_Oa-4" vertex="1">
          <mxGeometry x="580" width="407.5" height="280" as="geometry" />
        </mxCell>
        <mxCell id="1aZ0do-ARE3-RxrEN_Oa-5" value="" style="group" parent="WIyWlLk6GJQsqaUBKTNV-1" vertex="1" connectable="0">
          <mxGeometry x="-540" y="360" width="800" height="280" as="geometry" />
        </mxCell>
        <mxCell id="I_6RSkmziG8DNa_WAbXl-0" value="dim_dynamic_load_scd2" style="rounded=1;whiteSpace=wrap;html=1;strokeColor=default;align=center;verticalAlign=middle;fontFamily=Helvetica;fontSize=12;fontColor=default;fillColor=#FFD966;" parent="1aZ0do-ARE3-RxrEN_Oa-5" vertex="1">
          <mxGeometry x="610" y="110" width="190" height="60.25" as="geometry" />
        </mxCell>
        <mxCell id="I_6RSkmziG8DNa_WAbXl-1" value="&lt;div style=&quot;border-color: var(--border-color); text-align: left;&quot;&gt;&lt;div style=&quot;border-color: var(--border-color);&quot;&gt;&lt;div style=&quot;border-color: var(--border-color);&quot;&gt;1)Upsert notebook will accept the below parameters&lt;/div&gt;&lt;div style=&quot;border-color: var(--border-color);&quot;&gt;&lt;div style=&quot;border-color: var(--border-color);&quot;&gt;ExtractWindowsStartDate&lt;/div&gt;&lt;div style=&quot;border-color: var(--border-color);&quot;&gt;TargetTableName&lt;/div&gt;&lt;div style=&quot;border-color: var(--border-color);&quot;&gt;SourceTableName&lt;/div&gt;&lt;div style=&quot;border-color: var(--border-color);&quot;&gt;SourceSchemaName&lt;/div&gt;&lt;div style=&quot;border-color: var(--border-color);&quot;&gt;TargetSchemaName&lt;/div&gt;&lt;div style=&quot;border-color: var(--border-color);&quot;&gt;ExtractWindowsStartDate&lt;/div&gt;&lt;div style=&quot;border-color: var(--border-color);&quot;&gt;BatchId&lt;/div&gt;&lt;/div&gt;&lt;div style=&quot;border-color: var(--border-color);&quot;&gt;&lt;br&gt;&lt;/div&gt;&lt;div style=&quot;border-color: var(--border-color);&quot;&gt;2)We will have a&amp;nbsp;CTL_TABLE_DIMS_FACTS&amp;nbsp;&lt;span style=&quot;background-color: initial;&quot;&gt;table where we get always the latest schema.&lt;/span&gt;&lt;br&gt;&lt;/div&gt;&lt;div style=&quot;border-color: var(--border-color);&quot;&gt;&lt;br&gt;&lt;/div&gt;&lt;div style=&quot;border-color: var(--border-color);&quot;&gt;3)There is no update in mapping table, Because how many columns are in bronze and silver that doesn&#39;t matter in Gold there will be constant number of columns in Gold layer used for higher purpose.&lt;/div&gt;&lt;div style=&quot;border-color: var(--border-color);&quot;&gt;&lt;br&gt;&lt;/div&gt;&lt;div style=&quot;border-color: var(--border-color);&quot;&gt;4)In this notebook we form an SQL merge statement to perform a merge from the silver layer to the Gold layer.&amp;nbsp;&lt;/div&gt;&lt;/div&gt;&lt;/div&gt;" style="shape=process;whiteSpace=wrap;html=1;backgroundOutline=1;strokeColor=default;align=center;verticalAlign=middle;fontFamily=Helvetica;fontSize=12;fontColor=default;fillColor=default;" parent="1aZ0do-ARE3-RxrEN_Oa-5" vertex="1">
          <mxGeometry width="407.5" height="280" as="geometry" />
        </mxCell>
        <mxCell id="I_6RSkmziG8DNa_WAbXl-2" style="edgeStyle=orthogonalEdgeStyle;rounded=0;orthogonalLoop=1;jettySize=auto;html=1;fontFamily=Helvetica;fontSize=12;fontColor=default;" parent="1aZ0do-ARE3-RxrEN_Oa-5" source="I_6RSkmziG8DNa_WAbXl-0" target="I_6RSkmziG8DNa_WAbXl-1" edge="1">
          <mxGeometry relative="1" as="geometry">
            <mxPoint x="1201.25" y="123.5" as="targetPoint" />
          </mxGeometry>
        </mxCell>
        <mxCell id="1aZ0do-ARE3-RxrEN_Oa-6" value="" style="group" parent="WIyWlLk6GJQsqaUBKTNV-1" vertex="1" connectable="0">
          <mxGeometry x="180" y="200" width="575" height="335" as="geometry" />
        </mxCell>
        <mxCell id="I_6RSkmziG8DNa_WAbXl-5" value="&lt;div style=&quot;background-color: rgb(255, 255, 254); line-height: 19px;&quot;&gt;Target_Table starts with &#39;dim&#39;&lt;br&gt;&lt;/div&gt;" style="rhombus;whiteSpace=wrap;html=1;" parent="1aZ0do-ARE3-RxrEN_Oa-6" vertex="1">
          <mxGeometry x="188.75" y="10" width="191.25" height="120" as="geometry" />
        </mxCell>
        <mxCell id="I_6RSkmziG8DNa_WAbXl-13" value="&lt;p style=&quot;line-height: 180%; font-size: 24px;&quot;&gt;&lt;b&gt;TRUE&lt;/b&gt;&lt;/p&gt;" style="text;html=1;align=center;verticalAlign=middle;resizable=0;points=[];autosize=1;strokeColor=none;fillColor=none;" parent="1aZ0do-ARE3-RxrEN_Oa-6" vertex="1">
          <mxGeometry width="90" height="100" as="geometry" />
        </mxCell>
        <mxCell id="I_6RSkmziG8DNa_WAbXl-14" value="&lt;p style=&quot;line-height: 180%; font-size: 24px;&quot;&gt;&lt;b&gt;FALSE&lt;/b&gt;&lt;/p&gt;" style="text;html=1;align=center;verticalAlign=middle;resizable=0;points=[];autosize=1;strokeColor=none;fillColor=none;" parent="1aZ0do-ARE3-RxrEN_Oa-6" vertex="1">
          <mxGeometry x="475" width="100" height="100" as="geometry" />
        </mxCell>
        <mxCell id="qOGddHEmML8nDjTaBClH-0" value="&lt;b&gt;&lt;font style=&quot;font-size: 20px;&quot;&gt;upsert into Gold layer&lt;/font&gt;&lt;/b&gt;" style="text;html=1;strokeColor=none;fillColor=none;align=center;verticalAlign=middle;whiteSpace=wrap;rounded=0;" parent="1aZ0do-ARE3-RxrEN_Oa-6" vertex="1">
          <mxGeometry x="180" y="275" width="220" height="60" as="geometry" />
        </mxCell>
        <mxCell id="I_6RSkmziG8DNa_WAbXl-10" style="edgeStyle=orthogonalEdgeStyle;rounded=0;orthogonalLoop=1;jettySize=auto;html=1;entryX=0.5;entryY=0;entryDx=0;entryDy=0;" parent="WIyWlLk6GJQsqaUBKTNV-1" source="I_6RSkmziG8DNa_WAbXl-5" target="I_6RSkmziG8DNa_WAbXl-0" edge="1">
          <mxGeometry relative="1" as="geometry">
            <mxPoint x="140" y="74" as="targetPoint" />
          </mxGeometry>
        </mxCell>
        <mxCell id="I_6RSkmziG8DNa_WAbXl-12" style="edgeStyle=orthogonalEdgeStyle;rounded=0;orthogonalLoop=1;jettySize=auto;html=1;entryX=0.5;entryY=0;entryDx=0;entryDy=0;" parent="WIyWlLk6GJQsqaUBKTNV-1" source="I_6RSkmziG8DNa_WAbXl-5" target="sKV7Br36NTfYx774qnBV-52" edge="1">
          <mxGeometry relative="1" as="geometry" />
        </mxCell>
        <mxCell id="1aZ0do-ARE3-RxrEN_Oa-7" value="" style="group" parent="WIyWlLk6GJQsqaUBKTNV-1" vertex="1" connectable="0">
          <mxGeometry x="370" y="870" width="998.75" height="135" as="geometry" />
        </mxCell>
        <mxCell id="cLSf2xtk1npk4WKIa0hI-3" value="Update Process" style="rounded=1;whiteSpace=wrap;html=1;strokeColor=default;align=center;verticalAlign=middle;fontFamily=Helvetica;fontSize=12;fontColor=default;fillColor=#FFD966;" parent="1aZ0do-ARE3-RxrEN_Oa-7" vertex="1">
          <mxGeometry y="37.5" width="190" height="60" as="geometry" />
        </mxCell>
        <mxCell id="cLSf2xtk1npk4WKIa0hI-5" value="1)ETL_PROCESS_HISTORY is the table where all process history is maintained.&lt;br&gt;&lt;br&gt;2) Using the existing ExecutionID and Table details, if the process is completed without errors then it update the status to SUCCESS with ExecutionEndTime, Process rows count including duration, else it update the status to FAILED with error details.&lt;br&gt;" style="shape=process;whiteSpace=wrap;html=1;backgroundOutline=1;strokeColor=default;align=left;verticalAlign=middle;fontFamily=Helvetica;fontSize=12;fontColor=default;fillColor=default;" parent="1aZ0do-ARE3-RxrEN_Oa-7" vertex="1">
          <mxGeometry x="588.75" width="410" height="135" as="geometry" />
        </mxCell>
        <mxCell id="cLSf2xtk1npk4WKIa0hI-18" style="edgeStyle=orthogonalEdgeStyle;rounded=0;orthogonalLoop=1;jettySize=auto;html=1;exitX=1;exitY=0.5;exitDx=0;exitDy=0;entryX=0;entryY=0.5;entryDx=0;entryDy=0;" parent="1aZ0do-ARE3-RxrEN_Oa-7" source="cLSf2xtk1npk4WKIa0hI-3" target="cLSf2xtk1npk4WKIa0hI-5" edge="1">
          <mxGeometry relative="1" as="geometry" />
        </mxCell>
        <mxCell id="1aZ0do-ARE3-RxrEN_Oa-8" value="" style="group" parent="WIyWlLk6GJQsqaUBKTNV-1" vertex="1" connectable="0">
          <mxGeometry x="370" y="1190" width="997.5" height="137.5" as="geometry" />
        </mxCell>
        <mxCell id="cLSf2xtk1npk4WKIa0hI-21" value="Update Batch " style="rounded=1;whiteSpace=wrap;html=1;strokeColor=default;align=center;verticalAlign=middle;fontFamily=Helvetica;fontSize=12;fontColor=default;fillColor=#FFD966;" parent="1aZ0do-ARE3-RxrEN_Oa-8" vertex="1">
          <mxGeometry y="38.75" width="190" height="60" as="geometry" />
        </mxCell>
        <mxCell id="cLSf2xtk1npk4WKIa0hI-22" value="1)ETL_BATCH_HISTORY is the table where all batch history is maintained.&lt;br&gt;&lt;br&gt;2)Using the existing Batch details, RetryAttempt and ErrorDescription, if the process is completed without errors then it update the status to SUCCESS with ExecutionEndTime, Process rows count including duration, else it update the status to FAILED with ErrorDescription." style="shape=process;whiteSpace=wrap;html=1;backgroundOutline=1;strokeColor=default;align=left;verticalAlign=middle;fontFamily=Helvetica;fontSize=12;fontColor=default;fillColor=default;" parent="1aZ0do-ARE3-RxrEN_Oa-8" vertex="1">
          <mxGeometry x="587.5" width="410" height="137.5" as="geometry" />
        </mxCell>
        <mxCell id="cLSf2xtk1npk4WKIa0hI-20" style="edgeStyle=orthogonalEdgeStyle;rounded=0;orthogonalLoop=1;jettySize=auto;html=1;exitX=1;exitY=0.5;exitDx=0;exitDy=0;entryX=0;entryY=0.5;entryDx=0;entryDy=0;" parent="1aZ0do-ARE3-RxrEN_Oa-8" source="cLSf2xtk1npk4WKIa0hI-21" target="cLSf2xtk1npk4WKIa0hI-22" edge="1">
          <mxGeometry relative="1" as="geometry" />
        </mxCell>
        <mxCell id="1BelaXO0P7mfCGoctV8W-0" style="edgeStyle=orthogonalEdgeStyle;rounded=0;orthogonalLoop=1;jettySize=auto;html=1;entryX=0.5;entryY=0;entryDx=0;entryDy=0;" edge="1" parent="WIyWlLk6GJQsqaUBKTNV-1" source="WIyWlLk6GJQsqaUBKTNV-3" target="sKV7Br36NTfYx774qnBV-50">
          <mxGeometry relative="1" as="geometry" />
        </mxCell>
        <mxCell id="1BelaXO0P7mfCGoctV8W-1" style="edgeStyle=orthogonalEdgeStyle;rounded=0;orthogonalLoop=1;jettySize=auto;html=1;entryX=0.5;entryY=0;entryDx=0;entryDy=0;" edge="1" parent="WIyWlLk6GJQsqaUBKTNV-1" source="sKV7Br36NTfYx774qnBV-8" target="WIyWlLk6GJQsqaUBKTNV-3">
          <mxGeometry relative="1" as="geometry" />
        </mxCell>
      </root>
    </mxGraphModel>
  </diagram>
</mxfile>
